<svg width="21" height="20" viewBox="0 0 21 20" fill="none" xmlns="http://www.w3.org/2000/svg">
<path d="M11.4529 3C12.3194 3 13.1891 3 14.0555 3C14.0555 3.80045 14.0555 4.59769 14.0555 5.40778C13.9738 5.40778 13.9149 5.40778 13.8561 5.40778C13.418 5.40778 12.9766 5.40457 12.5384 5.40778C12.0872 5.41099 11.8584 5.62638 11.8486 6.07643C11.842 6.43004 11.8453 6.78044 11.8453 7.13405C11.8453 7.25942 11.8453 7.38801 11.8453 7.53267C12.6038 7.53267 13.3428 7.53267 14.0882 7.53267C14.085 7.61304 14.085 7.6709 14.0784 7.72876C14.0032 8.4392 13.928 9.15286 13.8594 9.8633C13.8496 9.96938 13.8136 10.0112 13.7024 10.008C13.1499 10.0047 12.5973 10.0047 12.0447 10.0047C11.9826 10.0047 11.9205 10.0112 11.842 10.0144C11.842 12.3514 11.842 14.6692 11.842 16.9966C11.7668 16.9966 11.708 16.9966 11.6491 16.9966C10.799 16.9966 9.94566 16.9934 9.09556 16.9998C8.92881 17.0031 8.88958 16.9581 8.88958 16.7941C8.89285 14.6049 8.88958 12.4157 8.88958 10.2233C8.88958 10.1558 8.88958 10.0883 8.88958 10.0047C8.41549 10.0047 7.96101 10.0047 7.5 10.0047C7.5 9.17215 7.5 8.35884 7.5 7.52303C7.96755 7.52303 8.4253 7.52303 8.88958 7.52303C8.88958 7.06333 8.8765 6.62614 8.89285 6.18894C8.90593 5.83854 8.91574 5.48172 8.98767 5.14096C9.21327 4.10584 9.82468 3.40183 10.884 3.11894C11.0704 3.06751 11.2633 3.03858 11.4529 3Z" fill="#585A5C"/>
</svg>
