<svg width="59" height="30" viewBox="0 0 59 30" fill="none" xmlns="http://www.w3.org/2000/svg">
<g clip-path="url(#clip0_349_4395)">
<path d="M4.1977 2.42577C1.88441 2.42577 0 4.40612 0 6.83718V28.8943H7.55066V13.4611C7.55066 12.2456 8.48637 11.2486 9.65601 11.2486V11.2349H15.1143V28.8806H22.665V13.4475C22.665 12.2319 23.6007 11.2486 24.7703 11.2486L30.2156 11.2349V2.41211L4.1977 2.42577Z" fill="url(#paint0_linear_349_4395)"/>
<path d="M40.2875 4.62464C40.2875 3.40911 39.3518 2.41211 38.1821 2.41211H31.8921V11.2349H40.2875V4.62464Z" fill="url(#paint1_linear_349_4395)"/>
<path d="M40.2873 26.6545V20.0305H33.9843C32.8276 20.0305 31.8789 21.0139 31.8789 22.2431V28.867H38.182C39.3516 28.867 40.2873 27.8837 40.2873 26.6545Z" fill="url(#paint2_linear_349_4395)"/>
<path d="M52.8677 19.5934C51.6851 19.5934 50.6194 19.0744 49.8656 18.2549C49.7747 18.1593 49.6967 18.0501 49.6187 17.9545C49.5407 17.8589 49.4628 17.7496 49.3978 17.654C48.657 16.5341 48.5141 15.2229 48.9819 14.3898C48.9819 14.3762 48.9949 14.3762 48.9949 14.3625L49.0079 14.3488C49.4368 13.543 50.2555 12.9967 51.2042 12.9967C51.3732 12.9967 51.5421 13.0104 51.6981 13.0514C52.0749 13.1333 52.4648 13.1743 52.8677 13.1743C56.1947 13.1743 58.8978 10.3335 58.8978 6.83714C58.8978 3.34079 56.1947 0.5 52.8677 0.5C49.5407 0.5 46.8376 3.34079 46.8376 6.83714C46.8376 7.26053 46.8766 7.68392 46.9545 8.07999C46.9805 8.24388 47.0065 8.42143 47.0065 8.59898C47.0065 10.0194 45.9279 11.1803 44.5893 11.2349H40.2876V20.0441H44.0694C46.3827 20.0441 48.2541 22.0108 48.2671 24.4418C48.2671 27.1187 50.3335 29.2903 52.8807 29.2903C55.4279 29.2903 57.4943 27.1187 57.4943 24.4418C57.4943 21.7649 55.4149 19.5934 52.8677 19.5934Z" fill="url(#paint3_linear_349_4395)"/>
</g>
<defs>
<linearGradient id="paint0_linear_349_4395" x1="15.1097" y1="2.18938" x2="15.1097" y2="28.8358" gradientUnits="userSpaceOnUse">
<stop stop-color="#F0844A"/>
<stop offset="1" stop-color="#C70067"/>
</linearGradient>
<linearGradient id="paint1_linear_349_4395" x1="36.0928" y1="29.7498" x2="36.0928" y2="0.302128" gradientUnits="userSpaceOnUse">
<stop offset="0.00140224" stop-color="#005D91"/>
<stop offset="1" stop-color="#35B597"/>
</linearGradient>
<linearGradient id="paint2_linear_349_4395" x1="36.0926" y1="2.16212" x2="36.0926" y2="28.8085" gradientUnits="userSpaceOnUse">
<stop stop-color="#F0844A"/>
<stop offset="1" stop-color="#C70067"/>
</linearGradient>
<linearGradient id="paint3_linear_349_4395" x1="49.5856" y1="29.7224" x2="49.5856" y2="0.274772" gradientUnits="userSpaceOnUse">
<stop offset="0.00140224" stop-color="#005D91"/>
<stop offset="1" stop-color="#35B597"/>
</linearGradient>
<clipPath id="clip0_349_4395">
<rect width="59" height="29" fill="white" transform="translate(0 0.5)"/>
</clipPath>
</defs>
</svg>
