<svg width="210" height="70" viewBox="0 0 210 70" fill="none" xmlns="http://www.w3.org/2000/svg">
<g clip-path="url(#clip0_18_10659)">
<path d="M5.90125 17.3961C2.64917 17.3961 0 20.1686 0 23.5721V54.452H10.6149V32.8456C10.6149 31.1438 11.9304 29.748 13.5747 29.748V29.7289H21.2482V54.4328H31.8631V32.8265C31.8631 31.1247 33.1786 29.748 34.8229 29.748L42.4781 29.7289V17.377L5.90125 17.3961Z" fill="url(#paint0_linear_18_10659)"/>
<path d="M56.6374 20.4745C56.6374 18.7728 55.322 17.377 53.6776 17.377H44.8349V29.7289H56.6374V20.4745Z" fill="url(#paint1_linear_18_10659)"/>
<path d="M56.6374 51.316V42.0425H47.7764C46.1504 42.0425 44.8167 43.4192 44.8167 45.14V54.4136H53.6777C55.322 54.4136 56.6374 53.0369 56.6374 51.316Z" fill="url(#paint2_linear_18_10659)"/>
<path d="M74.3229 41.4307C72.6603 41.4307 71.1622 40.7041 70.1025 39.5568C69.9746 39.423 69.865 39.27 69.7554 39.1362C69.6458 39.0023 69.5361 38.8494 69.4448 38.7155C68.4034 37.1476 68.2024 35.3121 68.8601 34.1457C68.8601 34.1266 68.8784 34.1266 68.8784 34.1075L68.8967 34.0883C69.4996 32.9602 70.6506 32.1954 71.9843 32.1954C72.2218 32.1954 72.4594 32.2145 72.6786 32.2719C73.2084 32.3866 73.7565 32.444 74.3229 32.444C79.0001 32.444 82.8003 28.4668 82.8003 23.5719C82.8003 18.6771 79.0001 14.7 74.3229 14.7C69.6458 14.7 65.8456 18.6771 65.8456 23.5719C65.8456 24.1647 65.9004 24.7574 66.01 25.3119C66.0465 25.5414 66.0831 25.79 66.0831 26.0385C66.0831 28.0271 64.5667 29.6523 62.6848 29.7288H56.6374V42.0617H61.954C65.2061 42.0617 67.837 44.815 67.8553 48.2185C67.8553 51.9662 70.7602 55.0064 74.3412 55.0064C77.9221 55.0064 80.8271 51.9662 80.8271 48.2185C80.8271 44.4709 77.9039 41.4307 74.3229 41.4307Z" fill="url(#paint3_linear_18_10659)"/>
<path d="M104.894 29.8551V30.9867H99.8879V29.8551H104.894ZM99.8688 33.1108C99.8879 32.7138 99.8879 32.3366 99.8879 31.9793V31.9594H104.894V33.1108H99.8688ZM105.199 36.5849V38.9274H100.805V36.5849H105.199ZM106.174 34.2225V28.7434H98.627V31.9594C98.627 34.2225 98.4168 37.2996 96.6208 39.5627C96.8883 39.7215 97.4042 40.1979 97.5761 40.4759C98.6461 39.1061 99.2383 37.3988 99.5631 35.7114V40.8729H100.805V40.059H105.199V40.7339H106.46V35.4533H99.6014C99.6778 35.0364 99.7351 34.6196 99.7733 34.2225H106.174ZM101.627 22.9864C100.69 24.5944 98.99 26.5994 96.6208 28.0684C96.9074 28.267 97.3469 28.7633 97.5188 29.061C98.5696 28.3662 99.5058 27.592 100.289 26.8178V27.6515H104.932V26.5795H100.518C101.302 25.7855 101.951 24.9715 102.486 24.2569C103.805 25.3289 105.352 26.8773 106.174 27.8302L107.11 26.7185C106.155 25.6862 104.34 24.0981 102.926 22.9864H101.627ZM109.078 25.1701H107.74V36.0886H109.078V25.1701ZM112.001 23.1849V38.987C112.001 39.3443 111.848 39.4634 111.523 39.4634C111.16 39.4833 110.033 39.5031 108.734 39.4436C108.944 39.8604 109.173 40.5354 109.231 40.9126C110.931 40.9324 111.944 40.8927 112.536 40.6545C113.128 40.3964 113.377 39.9597 113.377 38.9671V23.1849H112.001Z" fill="#FFFEFD"/>
<path d="M140.029 25.309C139.781 25.9244 139.399 26.7384 139.093 27.2942L139.571 27.4332H134.259L134.813 27.2744C134.68 26.7384 134.355 25.9443 133.992 25.309H140.029ZM145.188 27.4332H140.45C140.794 26.8773 141.176 26.1825 141.539 25.4678L140.813 25.309H144.213V24.1179H137.66V22.7878H136.265V24.1179H129.75V25.309H133.266L132.616 25.4678C132.941 26.0634 133.266 26.8575 133.419 27.4332H128.891V28.6441H145.188V27.4332ZM141.711 31.9197H132.387V30.7484H141.711V31.9197ZM141.711 34.163H132.387V32.952H141.711V34.163ZM143.086 29.6367H131.03V35.2747H135.654L134.928 36.0092C136.093 36.5452 137.45 37.4187 138.1 38.0539L138.978 37.1209C138.329 36.5253 137.087 35.771 135.979 35.2747H143.086V29.6367ZM129.406 40.4759C130.82 39.6024 131.642 38.1532 132.196 36.7238L130.992 36.2673C130.534 37.5775 129.636 38.9076 128.317 39.7016L129.406 40.4759ZM135.692 39.523C134.699 39.523 134.546 39.4237 134.546 38.9473V36.4062H133.151V38.9473C133.151 40.3766 133.667 40.7339 135.578 40.7339H139.189C140.717 40.7339 141.157 40.2178 141.29 38.0142C140.946 37.915 140.373 37.7363 140.087 37.5179C139.991 39.2847 139.876 39.523 139.055 39.523H135.692ZM141.233 36.7834C142.532 37.7959 143.965 39.2847 144.576 40.3369L145.723 39.6024C145.054 38.5304 143.621 37.0812 142.322 36.0886L141.233 36.7834Z" fill="#FFFEFD"/>
<path d="M173.694 27.4729H169.166V24.9715H173.694V27.4729ZM173.694 31.2447H169.166V28.7235H173.694V31.2447ZM163.128 28.7235H167.771V31.2447H163.128V28.7235ZM163.128 24.9715H167.771V27.4729H163.128V24.9715ZM175.088 23.6613H161.791V32.555H175.088V23.6613ZM171.191 35.7511C170.331 34.8578 168.612 33.6667 167.198 32.952L166.262 33.8453C167.675 34.6394 169.395 35.8504 170.216 36.7437L171.191 35.7511ZM161.237 39.9001C162.173 38.6296 162.842 36.565 163.3 34.9372L162.039 34.4806C161.619 36.029 160.893 37.9745 159.957 39.2053L161.237 39.9001ZM167.179 39.1458C166.109 39.1458 165.918 39.0465 165.918 38.4907V34.5798H164.504V38.5105C164.504 40.0788 165.039 40.5156 167.083 40.5156H170.923C172.662 40.5156 173.121 39.8406 173.312 37.1606C172.91 37.0613 172.318 36.843 171.993 36.6047C171.898 38.8281 171.745 39.1458 170.809 39.1458H167.179ZM173.101 34.7982C174.19 36.3467 175.299 38.4113 175.681 39.7413L177.056 39.1061C176.617 37.7561 175.471 35.7511 174.362 34.2622L173.101 34.7982Z" fill="#FFFEFD"/>
<path d="M205.161 25.5473C204.932 26.1825 204.531 27.0957 204.244 27.6714L204.836 27.8302H200.786L201.569 27.6118C201.435 27.0361 201.13 26.2024 200.748 25.5473H205.161ZM197.309 33.5277C196.563 33.885 195.818 34.2424 195.092 34.5798V29.0015H197.06V29.061H208.753V27.8302H205.524C205.849 27.2744 206.193 26.52 206.556 25.8053L205.505 25.5473H208.313V24.3363H203.556V22.8275H202.181V24.3363H197.691V25.5473H200.423L199.525 25.7855C199.83 26.4009 200.136 27.2347 200.27 27.8302H197.098V27.6118H195.092V23.0062H193.774V27.6118H191.558V29.0015H193.774V35.1953C192.8 35.632 191.921 36.029 191.195 36.307L191.711 37.776L197.614 34.8578L197.309 33.5277ZM199.754 33.5476H206.288V35.0166H199.754V33.5476ZM199.754 31.1058H206.288V32.5748H199.754V31.1058ZM205.6 39.523C205.142 39.523 205.065 39.4436 205.065 39.0068V36.0489H207.683V30.0735H198.417V36.0489H200.327C199.907 37.8951 198.875 39.0465 195.78 39.7016C196.048 39.9597 196.43 40.5751 196.583 40.9324C200.022 40.059 201.244 38.4907 201.722 36.0489H203.709V39.0267C203.709 40.3964 204.034 40.7736 205.428 40.7736H207.282C208.409 40.7736 208.772 40.2575 208.906 38.0539C208.543 37.9745 207.989 37.7561 207.702 37.5378C207.664 39.2847 207.568 39.523 207.129 39.523H205.6Z" fill="#FFFEFD"/>
<path d="M96.7847 49.5938C96.7847 49.3899 96.7786 49.1987 96.7663 49.0203C96.754 48.8419 96.7479 48.6794 96.7479 48.5328H97.4286C97.4286 48.6539 97.4317 48.775 97.4378 48.896C97.444 49.0171 97.447 49.1414 97.447 49.2688H97.4654C97.5145 49.1605 97.5819 49.0553 97.6678 48.9534C97.7598 48.8514 97.8671 48.7622 97.9898 48.6858C98.1124 48.6029 98.2504 48.5392 98.4037 48.4946C98.5571 48.4436 98.7226 48.4181 98.9005 48.4181C99.1335 48.4181 99.3267 48.45 99.48 48.5137C99.6395 48.5711 99.7713 48.6443 99.8756 48.7335C99.9798 48.8164 100.06 48.9088 100.115 49.0107C100.176 49.1063 100.225 49.1923 100.262 49.2688C100.421 49.0012 100.605 48.7941 100.814 48.6475C101.022 48.4946 101.292 48.4181 101.623 48.4181C101.93 48.4181 102.188 48.4627 102.396 48.5519C102.605 48.6348 102.773 48.759 102.902 48.9247C103.031 49.084 103.123 49.2816 103.178 49.5173C103.233 49.7467 103.261 50.0048 103.261 50.2915V53.0061H102.543V50.3298C102.543 50.1768 102.528 50.0271 102.497 49.8805C102.467 49.734 102.411 49.6034 102.332 49.4887C102.252 49.374 102.145 49.2816 102.01 49.2115C101.875 49.1414 101.703 49.1063 101.495 49.1063C101.341 49.1063 101.197 49.1382 101.062 49.2019C100.927 49.2656 100.808 49.3548 100.704 49.4695C100.605 49.5842 100.526 49.7244 100.464 49.8901C100.409 50.0494 100.382 50.2278 100.382 50.4254V53.0061H99.664V50.4732C99.664 49.9761 99.5996 49.6257 99.4708 49.4217C99.342 49.2115 99.1305 49.1063 98.8361 49.1063C98.603 49.1063 98.4007 49.1477 98.2289 49.2306C98.0634 49.3134 97.9254 49.4313 97.815 49.5842C97.7107 49.7372 97.631 49.9188 97.5758 50.1291C97.5268 50.3393 97.5022 50.5719 97.5022 50.8268V53.0061H96.7847V49.5938Z" fill="#FFFEFD"/>
<path d="M105.731 50.5974L104.186 48.5328H105.124L106.265 50.1386L107.341 48.5328H108.215L106.734 50.5974L108.51 53.0061H107.562L106.201 51.0753L104.857 53.0061H103.965L105.731 50.5974Z" fill="#FFFEFD"/>
<path d="M108.942 50.368H111.196V51.0562H108.942V50.368Z" fill="#FFFEFD"/>
<path d="M115.86 52.2128H115.841C115.706 52.4677 115.492 52.6843 115.197 52.8627C114.909 53.0348 114.572 53.1208 114.185 53.1208C113.885 53.1208 113.603 53.0635 113.339 52.9488C113.075 52.8277 112.845 52.662 112.649 52.4517C112.459 52.2414 112.309 51.9929 112.198 51.7062C112.088 51.4194 112.033 51.1072 112.033 50.7695C112.033 50.4317 112.088 50.1195 112.198 49.8328C112.309 49.546 112.462 49.2975 112.658 49.0872C112.855 48.8769 113.091 48.7144 113.367 48.5997C113.649 48.4787 113.959 48.4181 114.296 48.4181C114.609 48.4181 114.894 48.485 115.151 48.6188C115.415 48.7527 115.645 48.9406 115.841 49.1828H115.86V45.78H116.577V53.0061H115.86V52.2128ZM115.86 50.7695C115.86 50.5337 115.823 50.317 115.749 50.1195C115.682 49.9156 115.581 49.7404 115.446 49.5938C115.311 49.4409 115.148 49.323 114.958 49.2401C114.774 49.1509 114.566 49.1063 114.333 49.1063C114.1 49.1063 113.888 49.1509 113.698 49.2401C113.514 49.323 113.354 49.4409 113.22 49.5938C113.085 49.7404 112.98 49.9156 112.907 50.1195C112.839 50.317 112.806 50.5337 112.806 50.7695C112.806 51.0052 112.839 51.2251 112.907 51.429C112.98 51.6265 113.085 51.8018 113.22 51.9547C113.354 52.1013 113.514 52.2191 113.698 52.3084C113.888 52.3912 114.1 52.4326 114.333 52.4326C114.566 52.4326 114.774 52.3912 114.958 52.3084C115.148 52.2191 115.311 52.1013 115.446 51.9547C115.581 51.8018 115.682 51.6265 115.749 51.429C115.823 51.2251 115.86 51.0052 115.86 50.7695Z" fill="#FFFEFD"/>
<path d="M117.978 48.5328H118.696V53.0061H117.978V48.5328ZM117.813 46.7837C117.813 46.6371 117.862 46.5096 117.96 46.4013C118.064 46.293 118.19 46.2388 118.337 46.2388C118.484 46.2388 118.607 46.293 118.705 46.4013C118.809 46.5096 118.861 46.6371 118.861 46.7837C118.861 46.943 118.812 47.0736 118.714 47.1755C118.616 47.2775 118.49 47.3285 118.337 47.3285C118.184 47.3285 118.058 47.2775 117.96 47.1755C117.862 47.0736 117.813 46.943 117.813 46.7837Z" fill="#FFFEFD"/>
<path d="M124.42 52.8054C124.42 53.621 124.217 54.2391 123.813 54.6597C123.414 55.0866 122.834 55.3001 122.074 55.3001C121.651 55.3001 121.268 55.2364 120.924 55.1089C120.587 54.9815 120.265 54.7617 119.958 54.4494L120.473 53.8377C120.7 54.0926 120.939 54.2837 121.191 54.4112C121.448 54.545 121.743 54.6119 122.074 54.6119C122.393 54.6119 122.657 54.5609 122.865 54.459C123.08 54.3634 123.248 54.2296 123.371 54.0575C123.494 53.8918 123.58 53.7007 123.629 53.484C123.678 53.2674 123.702 53.0412 123.702 52.8054V52.2319H123.684C123.512 52.5186 123.288 52.7289 123.012 52.8627C122.736 52.9966 122.454 53.0635 122.166 53.0635C121.829 53.0635 121.519 53.0061 121.237 52.8914C120.955 52.7767 120.713 52.6174 120.51 52.4135C120.308 52.2096 120.151 51.9674 120.041 51.6871C119.931 51.4067 119.875 51.1008 119.875 50.7695C119.875 50.4062 119.931 50.0781 120.041 49.785C120.151 49.4918 120.305 49.2465 120.501 49.049C120.703 48.8451 120.946 48.6889 121.228 48.5806C121.51 48.4723 121.823 48.4181 122.166 48.4181C122.313 48.4181 122.46 48.4372 122.608 48.4755C122.755 48.5073 122.896 48.5615 123.031 48.638C123.172 48.7081 123.297 48.8005 123.408 48.9152C123.518 49.0235 123.61 49.1509 123.684 49.2975H123.702V48.5328H124.42V52.8054ZM120.648 50.7695C120.648 50.9989 120.688 51.2123 120.768 51.4099C120.847 51.601 120.955 51.7699 121.09 51.9165C121.231 52.0567 121.393 52.1682 121.577 52.251C121.761 52.3338 121.957 52.3753 122.166 52.3753C122.411 52.3753 122.629 52.3307 122.819 52.2414C123.009 52.1522 123.169 52.0343 123.297 51.8878C123.432 51.7349 123.534 51.5628 123.601 51.3716C123.669 51.1741 123.702 50.967 123.702 50.7503C123.702 50.5082 123.665 50.2884 123.592 50.0908C123.518 49.8869 123.414 49.7117 123.279 49.5651C123.144 49.4186 122.982 49.307 122.792 49.2306C122.601 49.1477 122.393 49.1063 122.166 49.1063C121.939 49.1063 121.731 49.1509 121.54 49.2401C121.356 49.323 121.197 49.4409 121.062 49.5938C120.933 49.7404 120.832 49.9156 120.759 50.1195C120.685 50.317 120.648 50.5337 120.648 50.7695Z" fill="#FFFEFD"/>
<path d="M125.812 48.5328H126.529V53.0061H125.812V48.5328ZM125.646 46.7837C125.646 46.6371 125.695 46.5096 125.793 46.4013C125.898 46.293 126.023 46.2388 126.171 46.2388C126.318 46.2388 126.44 46.293 126.539 46.4013C126.643 46.5096 126.695 46.6371 126.695 46.7837C126.695 46.943 126.646 47.0736 126.548 47.1755C126.45 47.2775 126.324 47.3285 126.171 47.3285C126.017 47.3285 125.892 47.2775 125.793 47.1755C125.695 47.0736 125.646 46.943 125.646 46.7837Z" fill="#FFFEFD"/>
<path d="M128.555 51.9165C128.709 51.9165 128.837 51.9738 128.942 52.0885C129.052 52.1968 129.107 52.3307 129.107 52.49C129.107 52.6493 129.049 52.7863 128.933 52.901C128.822 53.0093 128.696 53.0635 128.555 53.0635C128.414 53.0635 128.286 53.0093 128.169 52.901C128.059 52.7863 128.003 52.6493 128.003 52.49C128.003 52.3307 128.056 52.1968 128.16 52.0885C128.27 51.9738 128.402 51.9165 128.555 51.9165Z" fill="#FFFEFD"/>
<path d="M133.581 49.6511C133.428 49.46 133.262 49.323 133.084 49.2401C132.906 49.1509 132.71 49.1063 132.496 49.1063C132.256 49.1063 132.045 49.1509 131.861 49.2401C131.677 49.323 131.523 49.4409 131.401 49.5938C131.284 49.7467 131.195 49.9251 131.134 50.1291C131.073 50.3266 131.042 50.5401 131.042 50.7695C131.042 50.9989 131.076 51.2155 131.143 51.4194C131.217 51.617 131.315 51.7922 131.438 51.9451C131.566 52.0981 131.72 52.2191 131.898 52.3084C132.075 52.3912 132.275 52.4326 132.496 52.4326C132.968 52.4326 133.333 52.2478 133.59 51.8782L134.124 52.4039C133.915 52.6525 133.67 52.8341 133.388 52.9488C133.106 53.0635 132.808 53.1208 132.496 53.1208C132.164 53.1208 131.861 53.0635 131.585 52.9488C131.309 52.8341 131.073 52.6716 130.876 52.4613C130.686 52.251 130.536 52.0025 130.426 51.7157C130.321 51.429 130.269 51.1136 130.269 50.7695C130.269 50.4317 130.321 50.1195 130.426 49.8328C130.536 49.546 130.689 49.2975 130.886 49.0872C131.082 48.8769 131.315 48.7144 131.585 48.5997C131.861 48.4787 132.164 48.4181 132.496 48.4181C132.814 48.4181 133.115 48.4755 133.397 48.5902C133.685 48.7049 133.937 48.8833 134.151 49.1254L133.581 49.6511Z" fill="#FFFEFD"/>
<path d="M134.707 50.7695C134.707 50.419 134.765 50.1004 134.882 49.8136C134.998 49.5269 135.158 49.2816 135.36 49.0776C135.563 48.8674 135.805 48.7049 136.087 48.5902C136.369 48.4755 136.676 48.4181 137.007 48.4181C137.338 48.4181 137.645 48.4755 137.927 48.5902C138.209 48.7049 138.451 48.8674 138.654 49.0776C138.856 49.2816 139.015 49.5269 139.132 49.8136C139.248 50.1004 139.307 50.419 139.307 50.7695C139.307 51.1199 139.248 51.4385 139.132 51.7253C139.015 52.012 138.856 52.2606 138.654 52.4708C138.451 52.6748 138.209 52.8341 137.927 52.9488C137.645 53.0635 137.338 53.1208 137.007 53.1208C136.676 53.1208 136.369 53.0635 136.087 52.9488C135.805 52.8341 135.563 52.6748 135.36 52.4708C135.158 52.2606 134.998 52.012 134.882 51.7253C134.765 51.4385 134.707 51.1199 134.707 50.7695ZM135.48 50.7695C135.48 51.0052 135.514 51.2251 135.581 51.429C135.655 51.6265 135.759 51.8018 135.894 51.9547C136.029 52.1013 136.188 52.2191 136.372 52.3084C136.562 52.3912 136.774 52.4326 137.007 52.4326C137.24 52.4326 137.449 52.3912 137.632 52.3084C137.823 52.2191 137.985 52.1013 138.12 51.9547C138.255 51.8018 138.356 51.6265 138.424 51.429C138.497 51.2251 138.534 51.0052 138.534 50.7695C138.534 50.5337 138.497 50.317 138.424 50.1195C138.356 49.9156 138.255 49.7404 138.12 49.5938C137.985 49.4409 137.823 49.323 137.632 49.2401C137.449 49.1509 137.24 49.1063 137.007 49.1063C136.774 49.1063 136.562 49.1509 136.372 49.2401C136.188 49.323 136.029 49.4409 135.894 49.5938C135.759 49.7404 135.655 49.9156 135.581 50.1195C135.514 50.317 135.48 50.5337 135.48 50.7695Z" fill="#FFFEFD"/>
<path d="M140.418 49.5938C140.418 49.3899 140.411 49.1987 140.399 49.0203C140.387 48.8419 140.381 48.6794 140.381 48.5328H141.061C141.061 48.6539 141.065 48.775 141.071 48.896C141.077 49.0171 141.08 49.1414 141.08 49.2688H141.098C141.147 49.1605 141.215 49.0553 141.301 48.9534C141.393 48.8514 141.5 48.7622 141.623 48.6858C141.745 48.6029 141.883 48.5392 142.037 48.4946C142.19 48.4436 142.355 48.4181 142.533 48.4181C142.766 48.4181 142.96 48.45 143.113 48.5137C143.272 48.5711 143.404 48.6443 143.508 48.7335C143.613 48.8164 143.692 48.9088 143.748 49.0107C143.809 49.1063 143.858 49.1923 143.895 49.2688C144.054 49.0012 144.238 48.7941 144.447 48.6475C144.655 48.4946 144.925 48.4181 145.256 48.4181C145.563 48.4181 145.82 48.4627 146.029 48.5519C146.237 48.6348 146.406 48.759 146.535 48.9247C146.664 49.084 146.756 49.2816 146.811 49.5173C146.866 49.7467 146.894 50.0048 146.894 50.2915V53.0061H146.176V50.3298C146.176 50.1768 146.161 50.0271 146.13 49.8805C146.099 49.734 146.044 49.6034 145.965 49.4887C145.885 49.374 145.778 49.2816 145.643 49.2115C145.508 49.1414 145.336 49.1063 145.127 49.1063C144.974 49.1063 144.83 49.1382 144.695 49.2019C144.56 49.2656 144.441 49.3548 144.336 49.4695C144.238 49.5842 144.158 49.7244 144.097 49.8901C144.042 50.0494 144.014 50.2278 144.014 50.4254V53.0061H143.297V50.4732C143.297 49.9761 143.232 49.6257 143.104 49.4217C142.975 49.2115 142.763 49.1063 142.469 49.1063C142.236 49.1063 142.033 49.1477 141.862 49.2306C141.696 49.3134 141.558 49.4313 141.448 49.5842C141.344 49.7372 141.264 49.9188 141.209 50.1291C141.16 50.3393 141.135 50.5719 141.135 50.8268V53.0061H140.418V49.5938Z" fill="#FFFEFD"/>
</g>
<defs>
<linearGradient id="paint0_linear_18_10659" x1="21.2417" y1="17.0651" x2="21.2417" y2="54.3701" gradientUnits="userSpaceOnUse">
<stop stop-color="#F0844A"/>
<stop offset="1" stop-color="#C70067"/>
</linearGradient>
<linearGradient id="paint1_linear_18_10659" x1="50.7404" y1="55.6497" x2="50.7404" y2="14.423" gradientUnits="userSpaceOnUse">
<stop offset="0.00140224" stop-color="#005D91"/>
<stop offset="1" stop-color="#35B597"/>
</linearGradient>
<linearGradient id="paint2_linear_18_10659" x1="50.7404" y1="17.0267" x2="50.7404" y2="54.3317" gradientUnits="userSpaceOnUse">
<stop stop-color="#F0844A"/>
<stop offset="1" stop-color="#C70067"/>
</linearGradient>
<linearGradient id="paint3_linear_18_10659" x1="69.7088" y1="55.6114" x2="69.7088" y2="14.3846" gradientUnits="userSpaceOnUse">
<stop offset="0.00140224" stop-color="#005D91"/>
<stop offset="1" stop-color="#35B597"/>
</linearGradient>
<clipPath id="clip0_18_10659">
<rect width="209.103" height="70" fill="white"/>
</clipPath>
</defs>
</svg>
