<svg width="20" height="20" viewBox="0 0 20 20" fill="none" xmlns="http://www.w3.org/2000/svg">
<path d="M10.8543 7.62216C11.3209 7.84491 11.7271 8.17637 12.039 8.58869C12.3509 9.00101 12.5593 9.48216 12.6466 9.99171C12.734 10.5013 12.6978 11.0243 12.5411 11.517C12.3844 12.0097 12.1117 12.4575 11.746 12.823L8.51526 16.0537C7.90938 16.6596 7.08761 17 6.23076 17C5.3739 17 4.55214 16.6596 3.94625 16.0537C3.34036 15.4478 2.99998 14.6261 2.99998 13.7692C2.99998 12.9124 3.34036 12.0906 3.94625 11.4847L5.20768 10.2233M14.7923 9.77672L16.0537 8.51529C16.6596 7.9094 17 7.08764 17 6.23078C17 5.37392 16.6596 4.55216 16.0537 3.94627C15.4478 3.34038 14.6261 3 13.7692 3C12.9123 3 12.0906 3.34038 11.4847 3.94627L8.25393 7.17703C7.88824 7.54247 7.61558 7.99033 7.45886 8.483C7.30215 8.97566 7.26595 9.49874 7.35332 10.0083C7.44068 10.5178 7.64905 10.999 7.96093 11.4113C8.27281 11.8236 8.67908 12.1551 9.14562 12.3778" stroke="#9FA0A0" stroke-linecap="round" stroke-linejoin="round"/>
</svg>
