<svg width="244" height="30" viewBox="0 0 244 30" fill="none" xmlns="http://www.w3.org/2000/svg">
<g clip-path="url(#clip0_18_6204)">
<path d="M4.1977 2.42574C1.88441 2.42574 0 4.40609 0 6.83715V28.8942H7.55066V13.4611C7.55066 12.2456 8.48637 11.2486 9.65601 11.2486V11.2349H15.1143V28.8806H22.665V13.4474C22.665 12.2319 23.6007 11.2486 24.7703 11.2486L30.2156 11.2349V2.41208L4.1977 2.42574Z" fill="url(#paint0_linear_18_6204)"/>
<path d="M40.2875 4.62461C40.2875 3.40908 39.3518 2.41208 38.1822 2.41208H31.8921V11.2349H40.2875V4.62461Z" fill="url(#paint1_linear_18_6204)"/>
<path d="M40.2875 26.6544V20.0304H33.9845C32.8278 20.0304 31.8791 21.0138 31.8791 22.243V28.8669H38.1822C39.3518 28.8669 40.2875 27.8836 40.2875 26.6544Z" fill="url(#paint2_linear_18_6204)"/>
<path d="M52.8676 19.5934C51.685 19.5934 50.6193 19.0744 49.8655 18.2549C49.7746 18.1593 49.6966 18.0501 49.6186 17.9545C49.5406 17.8589 49.4627 17.7496 49.3977 17.654C48.6569 16.5341 48.514 15.2229 48.9818 14.3898C48.9818 14.3762 48.9948 14.3762 48.9948 14.3625L49.0078 14.3488C49.4367 13.543 50.2554 12.9967 51.2041 12.9967C51.3731 12.9967 51.542 13.0104 51.698 13.0514C52.0749 13.1333 52.4647 13.1743 52.8676 13.1743C56.1946 13.1743 58.8977 10.3335 58.8977 6.83714C58.8977 3.34079 56.1946 0.5 52.8676 0.5C49.5406 0.5 46.8375 3.34079 46.8375 6.83714C46.8375 7.26053 46.8765 7.68392 46.9544 8.07999C46.9804 8.24388 47.0064 8.42143 47.0064 8.59898C47.0064 10.0194 45.9278 11.1803 44.5892 11.2349H40.2875V20.0441H44.0693C46.3826 20.0441 48.254 22.0108 48.267 24.4418C48.267 27.1187 50.3334 29.2903 52.8806 29.2903C55.4278 29.2903 57.4942 27.1187 57.4942 24.4418C57.4942 21.7649 55.4148 19.5934 52.8676 19.5934Z" fill="url(#paint3_linear_18_6204)"/>
</g>
<path d="M74 1V29" stroke="#585A5C"/>
<path d="M95.9531 8.96122C97.6458 8.96122 99.3386 9.59411 100.303 10.7896L98.1191 12.5124C97.5002 11.7916 96.6447 11.4928 95.68 11.4928C93.6596 11.4928 91.9487 13.0574 91.9487 15.501C91.9487 17.5755 93.332 19.5093 95.589 19.5093C96.6993 19.5093 97.6276 19.0698 98.2465 18.1732L100.613 19.8785C99.5934 21.3201 97.7186 22.0408 95.9531 22.0408C91.9123 22.0408 89 19.4741 89 15.501C89 11.5631 91.8941 8.96122 95.9531 8.96122Z" fill="#585A5C"/>
<path d="M102.516 21.7244V9.27766H106.812L109.779 17.3997H109.815L112.8 9.27766H117.077V21.7244H114.238V12.1784H114.202L110.816 21.7244H108.65L105.392 12.1784H105.356V21.7244H102.516Z" fill="#585A5C"/>
<path d="M124.437 8.96122C125.875 8.96122 127.276 9.3304 128.387 10.2622L126.439 12.319C125.984 11.7565 125.074 11.4928 124.382 11.4928C123.6 11.4928 122.471 11.8444 122.471 12.7761C122.471 13.8661 123.836 14.0946 125.256 14.5165C126.803 14.9736 128.405 15.6944 128.405 17.9447C128.405 20.7751 126.057 22.0408 123.436 22.0408C121.78 22.0408 120.323 21.5838 119.104 20.4762L121.124 18.3314C121.725 19.0698 122.635 19.5093 123.6 19.5093C124.382 19.5093 125.566 19.1753 125.566 18.2084C125.566 17.1184 124.2 16.8371 122.762 16.38C121.179 15.8878 119.523 15.1846 119.523 13.0047C119.523 10.3501 121.925 8.96122 124.437 8.96122Z" fill="#585A5C"/>
<path d="M137.101 12.8992H151.408V14.6044H137.101V12.8992ZM136.191 8.20527H150.898V9.85781H136.191V8.20527ZM140.123 16.0109H150.461V17.6458H140.123V16.0109ZM139.923 18.56H149.934V20.1598H139.923V18.56ZM138.266 21.1794H151.699V22.8847H138.266V21.1794ZM143.8 14.9209H145.947V22.3573H143.8V14.9209ZM136.009 12.8992H138.139V16.0812C138.139 18.2787 137.793 21.4959 136.082 23.5C135.754 23.1308 134.844 22.3925 134.389 22.1463C135.864 20.3883 136.009 17.8919 136.009 16.046V12.8992ZM140.141 14.7451L141.979 15.2901C141.306 17.0657 140.196 18.8764 138.885 19.984C138.74 19.5796 138.23 18.5072 137.902 18.0502C138.849 17.2415 139.668 16.0284 140.141 14.7451ZM138.303 10.6138L139.704 9.59411C142.999 10.227 147.203 11.2994 149.752 12.0905L148.386 13.198C145.984 12.3718 141.725 11.2466 138.303 10.6138ZM147.677 9.52379L149.115 10.3852C146.366 11.6686 142.089 12.6531 138.776 13.2332C138.485 12.8992 137.92 12.3718 137.575 12.0905C141.015 11.5982 145.438 10.6138 147.677 9.52379ZM141.87 7.27353L143.326 6.5879C143.872 7.20321 144.509 8.04705 144.783 8.6272L143.217 9.40072C142.981 8.82058 142.398 7.92399 141.87 7.27353Z" fill="#585A5C"/>
<path d="M158.507 9.50621V11.8795H164.914V9.50621H158.507ZM156.395 7.50207H167.152V13.8837H156.395V7.50207ZM153.902 15.3604H160.855V23.2011H158.67V17.3645H155.958V23.3066H153.902V15.3604ZM162.402 15.3604H169.61V23.2187H167.407V17.3645H164.495V23.3066H162.402V15.3604ZM154.812 20.4059H159.581V22.4276H154.812V20.4059ZM163.403 20.4059H168.499V22.4276H163.403V20.4059Z" fill="#585A5C"/>
<path d="M174.797 15.6593L177.145 16.257C176.29 18.3666 174.906 20.4938 173.614 21.8299C173.141 21.4431 172.121 20.8102 171.557 20.529C172.886 19.3687 174.124 17.5052 174.797 15.6593ZM183.643 16.38L185.718 15.5186C186.938 17.136 188.303 19.2808 188.812 20.7927L186.519 21.7596C186.1 20.318 184.826 18.0677 183.643 16.38ZM173.887 7.90641H186.792V9.99845H173.887V7.90641ZM172.194 12.2311H188.467V14.3407H172.194V12.2311ZM179.038 12.8464H181.368V23.2715H179.038V12.8464Z" fill="#585A5C"/>
<path d="M190.724 12.0202H199.242V13.5321H190.724V12.0202ZM190.523 19.773H199.369V21.3201H190.523V19.773ZM200.644 11.7389H205.394V13.5496H200.644V11.7389ZM194.164 11.0884H195.984V23.3066H194.164V11.0884ZM199.824 11.7389H201.899V20.1246C201.899 20.8806 202.009 21.0036 202.7 21.0036C203.028 21.0036 204.411 21.0036 204.794 21.0036C205.412 21.0036 205.54 20.6344 205.613 18.8764C206.086 19.1929 206.923 19.5269 207.506 19.6499C207.269 22.1287 206.705 22.8847 204.976 22.8847C204.521 22.8847 202.828 22.8847 202.409 22.8847C200.443 22.8847 199.824 22.3046 199.824 20.1422V11.7389ZM204.302 11.7389H206.395V16.7668C206.395 17.6458 206.231 18.2084 205.576 18.5248C204.957 18.8588 204.138 18.894 203.028 18.894C202.919 18.3139 202.573 17.47 202.3 16.9426C203.01 16.9778 203.774 16.9778 204.011 16.9778C204.247 16.9602 204.302 16.9074 204.302 16.7141V11.7389ZM192.944 17.2239V17.9271H197.076V17.2239H192.944ZM192.944 15.3428V16.046H197.076V15.3428H192.944ZM191.251 14.0946H198.878V19.1929H191.251V14.0946ZM192.908 7.85367H198.623V9.47104H192.908V7.85367ZM200.443 7.87125H207.269V9.47104H200.443V7.87125ZM193.017 6.64064L194.946 7.18563C194.218 8.8909 192.999 10.6489 191.834 11.774C191.524 11.4049 190.796 10.6665 190.378 10.3325C191.433 9.4183 192.453 8.02947 193.017 6.64064ZM200.553 6.64064L202.537 7.11531C201.954 8.87332 200.898 10.6313 199.806 11.7389C199.442 11.4049 198.641 10.7896 198.168 10.5083C199.206 9.57653 200.079 8.09979 200.553 6.64064ZM194.091 10.0512L195.383 8.96122C196.057 9.43588 196.912 10.1567 197.331 10.6489L195.966 11.8795C195.583 11.3697 194.746 10.5962 194.091 10.0512ZM202.027 10.1039L203.428 8.9788C204.065 9.4183 204.921 10.0863 205.34 10.5434L203.883 11.774C203.501 11.2994 202.682 10.5786 202.027 10.1039Z" fill="#585A5C"/>
<path d="M210.127 7.88883H224.67V9.98087H210.127V7.88883ZM209.144 15.3428H225.725V17.47H209.144V15.3428ZM211.219 11.106L213.203 10.5434C213.84 11.6686 214.477 13.1629 214.677 14.1298L212.566 14.7802C212.384 13.8309 211.801 12.2839 211.219 11.106ZM221.594 10.4907L223.924 11.0708C223.268 12.4069 222.522 13.8485 221.921 14.7627L220.01 14.2177C220.574 13.198 221.248 11.651 221.594 10.4907ZM216.261 8.76784H218.536V23.289H216.261V8.76784Z" fill="#585A5C"/>
<path d="M230.895 20.3532H240.924V22.3925H230.895V20.3532ZM229.821 15.5362H242.143V23.2715H239.795V17.5403H232.041V23.289H229.821V15.5362ZM237.484 9.52379L239.177 8.41624C240.851 9.92813 243.035 12.1081 244 13.6024L242.143 14.9033C241.27 13.409 239.177 11.1412 237.484 9.52379ZM229.22 14.3583C229.111 13.9364 228.747 12.8816 228.492 12.319C229.002 12.2135 229.42 11.8795 230.021 11.317C230.658 10.7544 232.642 8.60962 233.898 6.5L236.1 7.41417C234.48 9.66443 232.406 11.8092 230.513 13.2859V13.3563C230.513 13.3563 229.22 13.9716 229.22 14.3583ZM229.22 14.3583L229.184 12.7058L230.658 11.9674L241.852 11.6158C241.87 12.196 241.961 13.0574 242.052 13.5145C231.568 14.0067 230.203 14.0243 229.22 14.3583Z" fill="#585A5C"/>
<defs>
<linearGradient id="paint0_linear_18_6204" x1="15.1097" y1="2.18935" x2="15.1097" y2="28.8358" gradientUnits="userSpaceOnUse">
<stop stop-color="#F0844A"/>
<stop offset="1" stop-color="#C70067"/>
</linearGradient>
<linearGradient id="paint1_linear_18_6204" x1="36.0928" y1="29.7497" x2="36.0928" y2="0.302098" gradientUnits="userSpaceOnUse">
<stop offset="0.00140224" stop-color="#005D91"/>
<stop offset="1" stop-color="#35B597"/>
</linearGradient>
<linearGradient id="paint2_linear_18_6204" x1="36.0928" y1="2.16203" x2="36.0928" y2="28.8084" gradientUnits="userSpaceOnUse">
<stop stop-color="#F0844A"/>
<stop offset="1" stop-color="#C70067"/>
</linearGradient>
<linearGradient id="paint3_linear_18_6204" x1="49.5855" y1="29.7224" x2="49.5855" y2="0.274772" gradientUnits="userSpaceOnUse">
<stop offset="0.00140224" stop-color="#005D91"/>
<stop offset="1" stop-color="#35B597"/>
</linearGradient>
<clipPath id="clip0_18_6204">
<rect width="59" height="29" fill="white" transform="translate(0 0.5)"/>
</clipPath>
</defs>
</svg>
