<svg width="20" height="20" viewBox="0 0 20 20" fill="none" xmlns="http://www.w3.org/2000/svg">
<path d="M10.0147 14.9949C8.43855 14.9613 6.8093 14.8604 5.2148 14.7708C3.98195 14.7036 3.40113 14.2105 3.22031 12.9668C2.91422 10.9234 2.92716 8.84326 3.25866 6.80401C3.29368 6.33156 3.51074 5.89266 3.86214 5.58379C4.21354 5.27492 4.67052 5.12135 5.13261 5.15687C6.90792 5.08404 8.68873 5.0056 10.464 5C11.8887 5 13.3188 5.07844 14.7434 5.15127C16.0146 5.2129 16.6009 5.71153 16.7818 6.9945C17.0868 9.03814 17.072 11.1184 16.7379 13.1573C16.7028 13.622 16.4909 14.0542 16.1478 14.3611C15.8046 14.668 15.3575 14.8251 14.9023 14.7988C13.2585 14.8884 11.5909 15.0285 10.0147 14.9949ZM8.59558 12.1544L12.2777 9.98064L8.59558 7.80687V12.1544Z" fill="#FFFEFD"/>
</svg>
