<svg width="20" height="20" viewBox="0 0 20 20" fill="none" xmlns="http://www.w3.org/2000/svg">
<path d="M10.9529 3C11.8194 3 12.6891 3 13.5555 3C13.5555 3.80045 13.5555 4.59769 13.5555 5.40778C13.4738 5.40778 13.4149 5.40778 13.3561 5.40778C12.918 5.40778 12.4766 5.40457 12.0384 5.40778C11.5872 5.41099 11.3584 5.62638 11.3486 6.07643C11.342 6.43004 11.3453 6.78044 11.3453 7.13405C11.3453 7.25942 11.3453 7.38801 11.3453 7.53267C12.1038 7.53267 12.8428 7.53267 13.5882 7.53267C13.585 7.61304 13.585 7.6709 13.5784 7.72876C13.5032 8.4392 13.428 9.15286 13.3594 9.8633C13.3496 9.96938 13.3136 10.0112 13.2024 10.008C12.6499 10.0047 12.0973 10.0047 11.5447 10.0047C11.4826 10.0047 11.4205 10.0112 11.342 10.0144C11.342 12.3514 11.342 14.6692 11.342 16.9966C11.2668 16.9966 11.208 16.9966 11.1491 16.9966C10.299 16.9966 9.44566 16.9934 8.59556 16.9998C8.42881 17.0031 8.38958 16.9581 8.38958 16.7941C8.39285 14.6049 8.38958 12.4157 8.38958 10.2233C8.38958 10.1558 8.38958 10.0883 8.38958 10.0047C7.91549 10.0047 7.46101 10.0047 7 10.0047C7 9.17215 7 8.35884 7 7.52303C7.46755 7.52303 7.9253 7.52303 8.38958 7.52303C8.38958 7.06333 8.3765 6.62614 8.39285 6.18894C8.40593 5.83854 8.41574 5.48172 8.48767 5.14096C8.71327 4.10584 9.32468 3.40183 10.384 3.11894C10.5704 3.06751 10.7633 3.03858 10.9529 3Z" fill="#FFFEFD"/>
</svg>
