<svg width="21" height="20" viewBox="0 0 21 20" fill="none" xmlns="http://www.w3.org/2000/svg">
<path d="M10.5147 14.9949C8.93855 14.9613 7.3093 14.8604 5.7148 14.7708C4.48195 14.7036 3.90113 14.2105 3.72031 12.9668C3.41422 10.9234 3.42716 8.84326 3.75866 6.80401C3.79368 6.33156 4.01074 5.89266 4.36214 5.58379C4.71354 5.27492 5.17052 5.12135 5.63261 5.15687C7.40792 5.08404 9.18873 5.0056 10.964 5C12.3887 5 13.8188 5.07844 15.2434 5.15127C16.5146 5.2129 17.1009 5.71153 17.2818 6.9945C17.5868 9.03814 17.572 11.1184 17.2379 13.1573C17.2028 13.622 16.9909 14.0542 16.6478 14.3611C16.3046 14.668 15.8575 14.8251 15.4023 14.7988C13.7585 14.8884 12.0909 15.0285 10.5147 14.9949ZM9.09558 12.1544L12.7777 9.98064L9.09558 7.80687V12.1544Z" fill="#585A5C"/>
</svg>
